<svg width="123" height="34" viewBox="0 0 123 34" fill="none" xmlns="http://www.w3.org/2000/svg">
<path fill-rule="evenodd" clip-rule="evenodd" d="M123 0.411133V33.5888H104.259V0.411133H123ZM40.694 11.1493C41.5864 11.1493 42.4725 11.2087 43.3521 11.3276C44.2318 11.4466 45.0286 11.6903 45.7425 12.059C46.4565 12.4276 47.0302 12.9449 47.4636 13.6108C47.8971 14.2768 48.1138 15.1449 48.1138 16.2151V25.7046C48.1138 26.4181 48.1584 26.9413 48.2477 27.2743C48.3369 27.6073 48.6365 27.7738 49.1465 27.7738C49.4269 27.7738 49.7584 27.7143 50.1409 27.5954V29.9499C49.5799 30.2591 48.8022 30.4137 47.8078 30.4137C46.9664 30.4137 46.2971 30.1937 45.7999 29.7537C45.3027 29.3137 45.0541 28.5943 45.0541 27.5954C44.1617 28.5943 43.1227 29.3137 41.937 29.7537C40.7514 30.1937 39.4702 30.4137 38.0933 30.4137C37.2009 30.4137 36.3531 30.3186 35.5499 30.1283C34.7467 29.938 34.0519 29.6407 33.4655 29.2364C32.879 28.8321 32.4137 28.3029 32.0695 27.6489C31.7253 26.9949 31.5532 26.2041 31.5532 25.2765C31.5532 24.2301 31.7444 23.3739 32.1269 22.7079C32.5093 22.042 33.0129 21.5009 33.6376 21.0847C34.2623 20.6685 34.9762 20.3534 35.7794 20.1393C36.5826 19.9253 37.4048 19.7469 38.2463 19.6042C39.1387 19.4377 39.9865 19.3129 40.7896 19.2296C41.5928 19.1464 42.3004 19.0275 42.9123 18.8729C43.5243 18.7183 44.0087 18.4923 44.3657 18.1951C44.7226 17.8978 44.9011 17.4637 44.9011 16.8929C44.9011 16.227 44.7673 15.6919 44.4995 15.2876C44.2318 14.8832 43.8876 14.5741 43.4669 14.36C43.0462 14.146 42.5745 14.0033 42.0518 13.9319C41.5291 13.8606 41.0128 13.8249 40.5028 13.8249C39.1259 13.8249 37.9786 14.0687 37.0606 14.5562C36.1427 15.0438 35.6455 15.9654 35.569 17.321H32.3181C32.3691 16.1794 32.6241 15.2162 33.083 14.4314C33.542 13.6465 34.1539 13.0103 34.9188 12.5228C35.6838 12.0352 36.5571 11.6844 37.5387 11.4703C38.5204 11.2563 39.5721 11.1493 40.694 11.1493ZM81.2351 11.1493C82.9944 11.1493 84.4541 11.4882 85.6143 12.166C86.7744 12.8438 87.7051 13.706 88.4063 14.7524C89.1074 15.7989 89.5919 16.9405 89.8596 18.1772C90.1273 19.414 90.2357 20.5912 90.1847 21.709H75.3834C75.3579 22.5177 75.4599 23.2847 75.6894 24.0101C75.9188 24.7355 76.2886 25.3776 76.7985 25.9365C77.3085 26.4954 77.9586 26.9413 78.7491 27.2743C79.5395 27.6073 80.4702 27.7738 81.5411 27.7738C82.9179 27.7738 84.0462 27.4765 84.9258 26.8819C85.8055 26.2873 86.3856 25.3836 86.666 24.1706H89.8787C89.4453 26.2398 88.4891 27.7975 87.0103 28.844C85.5314 29.8905 83.6701 30.4137 81.4263 30.4137C79.8455 30.4137 78.475 30.1759 77.3148 29.7002C76.1547 29.2245 75.1794 28.5586 74.389 27.7024C73.5986 26.8462 73.0058 25.8235 72.6105 24.6344C72.2153 23.4452 71.9922 22.149 71.9412 20.7458C71.9412 19.3426 72.1707 18.0583 72.6297 16.8929C73.0886 15.7275 73.7324 14.7168 74.5611 13.8606C75.3898 13.0044 76.3714 12.3384 77.5061 11.8628C78.6407 11.3871 79.8837 11.1493 81.2351 11.1493ZM112.826 11.1493C111.96 11.1493 111.086 11.2503 110.207 11.4525C109.327 11.6547 108.537 11.9638 107.835 12.3801C107.134 12.7963 106.56 13.3373 106.114 14.0033C105.668 14.6692 105.445 15.4659 105.445 16.3935C105.445 17.5826 105.764 18.5102 106.401 19.1761C107.039 19.842 107.835 20.3593 108.792 20.728C109.748 21.0966 110.787 21.382 111.909 21.5842C113.03 21.7863 114.07 22.0123 115.026 22.262C115.982 22.5117 116.779 22.8387 117.416 23.2431C118.053 23.6474 118.372 24.2419 118.372 25.0268C118.372 25.5976 118.219 26.0673 117.913 26.436C117.607 26.8046 117.218 27.084 116.747 27.2743C116.275 27.4646 115.759 27.5954 115.198 27.6667C114.637 27.7381 114.101 27.7738 113.591 27.7738C112.928 27.7738 112.285 27.7143 111.66 27.5954C111.035 27.4765 110.474 27.2803 109.977 27.0068C109.48 26.7332 109.078 26.3646 108.772 25.9008C108.466 25.4371 108.301 24.8722 108.275 24.2063H105.024C105.075 25.3479 105.33 26.317 105.789 27.1138C106.248 27.9105 106.86 28.5527 107.625 29.0402C108.39 29.5278 109.27 29.8786 110.264 30.0926C111.258 30.3067 112.304 30.4137 113.4 30.4137C114.395 30.4137 115.395 30.3245 116.403 30.1461C117.41 29.9678 118.315 29.6526 119.118 29.2008C119.921 28.7489 120.571 28.1543 121.069 27.417C121.566 26.6797 121.814 25.7522 121.814 24.6344C121.814 23.7544 121.63 23.0171 121.26 22.4225C120.89 21.8279 120.406 21.3344 119.806 20.942C119.207 20.5496 118.519 20.2345 117.741 19.9966C116.963 19.7588 116.167 19.5566 115.351 19.3902C114.586 19.2237 113.821 19.0631 113.056 18.9086C112.291 18.754 111.603 18.5637 110.991 18.3378C110.379 18.1118 109.875 17.8264 109.48 17.4816C109.085 17.1367 108.887 16.7027 108.887 16.1794C108.887 15.7038 109.015 15.3173 109.27 15.02C109.525 14.7227 109.856 14.4849 110.264 14.3065C110.672 14.1281 111.125 14.0033 111.622 13.9319C112.119 13.8606 112.61 13.8249 113.094 13.8249C113.63 13.8249 114.159 13.8784 114.681 13.9854C115.204 14.0924 115.682 14.2649 116.116 14.5027C116.549 14.7405 116.906 15.0557 117.187 15.4481C117.467 15.8405 117.633 16.334 117.684 16.9286H120.935C120.858 15.8108 120.603 14.8773 120.17 14.1281C119.736 13.3789 119.156 12.7844 118.43 12.3444C117.703 11.9044 116.868 11.5952 115.924 11.4168C114.981 11.2385 113.948 11.1493 112.826 11.1493ZM21.1502 11.1493C22.1446 11.1493 23.0434 11.2503 23.8465 11.4525C24.6497 11.6547 25.3382 11.9698 25.9118 12.3979C26.4855 12.826 26.9317 13.3789 27.2505 14.0568C27.5692 14.7346 27.7285 15.5492 27.7285 16.5005V30.0213H24.4776V17.9275C24.4776 17.3567 24.4266 16.8216 24.3246 16.3221C24.2226 15.8227 24.0314 15.3886 23.7509 15.02C23.4705 14.6514 23.0816 14.36 22.5844 14.146C22.0872 13.9319 21.4434 13.8249 20.653 13.8249C19.0466 13.8249 17.7845 14.253 16.8666 15.1092C15.9487 15.9654 15.4897 17.107 15.4897 18.534V30.0213H12.2388V17.9275C12.2388 17.3329 12.1814 16.7859 12.0667 16.2865C11.952 15.787 11.7544 15.353 11.4739 14.9843C11.1934 14.6157 10.8173 14.3303 10.3456 14.1281C9.87391 13.926 9.26835 13.8249 8.52892 13.8249C7.58551 13.8249 6.77597 14.0033 6.10028 14.36C5.42459 14.7168 4.8764 15.1449 4.45569 15.6443C4.03498 16.1438 3.72901 16.661 3.53778 17.1962C3.34655 17.7313 3.25093 18.1772 3.25093 18.534V30.0213H0V11.5774H3.0597V14.2887H3.13619C4.61506 12.1957 6.74408 11.1493 9.52332 11.1493C10.7472 11.1493 11.8563 11.3871 12.8507 11.8628C13.8452 12.3384 14.5463 13.1471 14.9543 14.2887C15.6172 13.2898 16.4905 12.5168 17.5742 11.9698C18.6578 11.4228 19.8498 11.1493 21.1502 11.1493ZM56.6045 4.54942V19.6399L65.6306 11.5774H69.9907L62.1502 18.2842L70.5644 30.0213H66.4338L59.6642 20.3891L56.6045 23.029V30.0213H53.3535V4.54942H56.6045ZM103.839 11.1493V14.36C102.538 14.36 101.429 14.5265 100.511 14.8595C99.5933 15.1924 98.8539 15.68 98.2929 16.3221C97.732 16.9643 97.324 17.7432 97.069 18.6588C96.8141 19.5745 96.6866 20.6269 96.6866 21.8161V30.0213H93.4356V11.5774H96.4953V15.4659H96.5718C97.3623 13.9676 98.3312 12.8617 99.4786 12.1482C100.626 11.4347 102.079 11.1017 103.839 11.1493ZM44.8629 20.4961C44.4549 20.7815 43.9195 20.9896 43.2565 21.1204C42.5936 21.2512 41.8988 21.3582 41.1721 21.4415C40.4454 21.5247 39.7124 21.6198 38.9729 21.7269C38.2335 21.8339 37.5706 22.0063 36.9841 22.2442C36.3977 22.482 35.9196 22.8209 35.5499 23.2609C35.1802 23.7009 34.9953 24.3014 34.9953 25.0625C34.9953 25.5619 35.1037 25.9841 35.3204 26.3289C35.5372 26.6738 35.8176 26.9532 36.1618 27.1673C36.5061 27.3813 36.9076 27.5359 37.3666 27.6311C37.8256 27.7262 38.31 27.7738 38.82 27.7738C39.8909 27.7738 40.8088 27.637 41.5737 27.3635C42.3386 27.09 42.9633 26.7451 43.4478 26.3289C43.9322 25.9127 44.2892 25.4608 44.5187 24.9733C44.7481 24.4857 44.8629 24.0279 44.8629 23.5998V20.4961ZM81.0438 13.8249C80.2024 13.8249 79.4439 13.9616 78.7682 14.2351C78.0925 14.5087 77.5124 14.8832 77.028 15.3589C76.5435 15.8346 76.1611 16.3875 75.8806 17.0178C75.6001 17.648 75.4344 18.3199 75.3834 19.0334H86.7425C86.6915 18.3199 86.5194 17.6421 86.2262 16.9999C85.933 16.3578 85.5378 15.8048 85.0406 15.3411C84.5434 14.8773 83.9569 14.5087 83.2812 14.2351C82.6056 13.9616 81.8598 13.8249 81.0438 13.8249Z" fill="#18191F"/>
</svg>
